<svg width="51" height="10" viewBox="0 0 51 10" fill="none" xmlns="http://www.w3.org/2000/svg">
<path d="M0 8.88V2.484H1.944L2.196 3.132C2.688 2.604 3.384 2.316 4.2 2.316C5.064 2.316 5.784 2.64 6.24 3.252C6.744 2.652 7.5 2.316 8.448 2.316C10.044 2.316 11.1 3.372 11.1 5.052V8.88H8.364V5.388C8.364 4.836 8.088 4.512 7.62 4.512C7.152 4.512 6.876 4.836 6.876 5.4V8.88H4.224V5.388C4.224 4.836 3.948 4.512 3.48 4.512C3.012 4.512 2.736 4.836 2.736 5.4V8.88H0Z" fill="white"/>
<path d="M14.4993 9.036C13.0113 9.036 12.0873 8.268 12.0873 7.032C12.0873 5.856 12.9273 5.076 14.2593 5.076H16.2993V4.692C16.2993 4.368 15.9993 4.128 15.6033 4.128C15.2313 4.128 14.9553 4.344 14.9193 4.656H12.3993C12.5913 3.12 13.7073 2.316 15.6153 2.316C17.7753 2.316 18.9633 3.348 18.9633 5.268V8.88H17.0073L16.7313 8.184C16.1913 8.736 15.4233 9.036 14.4993 9.036ZM14.7033 6.84C14.7033 7.152 14.9673 7.344 15.3753 7.344C15.9393 7.344 16.3353 6.984 16.3353 6.42V6.336H15.3753C14.9673 6.336 14.7033 6.528 14.7033 6.84Z" fill="white"/>
<path d="M23.6348 9.06C21.3548 9.06 19.8188 7.716 19.8188 5.688C19.8188 3.66 21.3548 2.316 23.6348 2.316C25.9268 2.316 27.4508 3.66 27.4508 5.688C27.4508 7.716 25.9268 9.06 23.6348 9.06ZM22.4828 5.688C22.4828 6.372 22.9628 6.84 23.6348 6.84C24.3068 6.84 24.7868 6.372 24.7868 5.688C24.7868 4.992 24.3068 4.524 23.6348 4.524C22.9628 4.524 22.4828 4.992 22.4828 5.688Z" fill="white"/>
<path d="M31.166 9.06C29.234 9.06 28.022 8.184 28.022 6.78H30.662C30.662 7.104 30.878 7.332 31.202 7.332C31.478 7.332 31.646 7.176 31.646 6.96C31.646 6.672 31.322 6.504 30.506 6.384C28.838 6.144 28.07 5.508 28.07 4.368C28.07 3.048 29.15 2.316 31.13 2.316C33.026 2.316 34.094 3.084 34.178 4.536H31.634C31.622 4.2 31.418 4.02 31.082 4.02C30.818 4.02 30.65 4.152 30.65 4.38C30.65 4.668 30.914 4.8 31.85 4.944C33.482 5.184 34.286 5.844 34.286 6.972C34.286 8.304 33.158 9.06 31.166 9.06Z" fill="white"/>
<path d="M35.2852 8.88V0H38.0212V2.808C38.4652 2.496 39.0292 2.316 39.6772 2.316C41.2852 2.316 42.2812 3.372 42.2812 5.064V8.88H39.5452V5.412C39.5452 4.824 39.2812 4.512 38.8012 4.512C38.3092 4.512 38.0212 4.836 38.0212 5.448V8.88H35.2852Z" fill="white"/>
<path d="M46.1029 9.06C44.4589 9.06 43.4389 7.992 43.4389 6.288V2.484H46.1749V5.952C46.1749 6.54 46.4389 6.852 46.9189 6.852C47.3989 6.852 47.6869 6.528 47.6869 5.916V2.484H50.4229V8.88H48.4669L48.2029 8.208C47.7109 8.748 46.9789 9.06 46.1029 9.06Z" fill="white"/>
</svg>
